<?xml version="1.0" ?><svg id="Layer_1" style="enable-background:new 0 0 468 468;" version="1.1" viewBox="0 0 468 468" xml:space="preserve" xmlns="http://www.w3.org/2000/svg" xmlns:xlink="http://www.w3.org/1999/xlink"><g><g><path d="M317.763,183.551c-1.878,0-3.692-1.01-4.631-2.781c-1.352-2.55-0.377-5.71,2.179-7.06    c2.475-1.307,4.458-3.431,5.586-5.981c1.227-2.778,3.876-3.032,6.437-3.032c6.87,0,12.459-5.558,12.459-12.389    c0-6.832-5.589-12.389-12.459-12.389c-2.56,0-5.209-0.257-6.437-3.032c-1.991-4.504-6.467-7.414-11.403-7.414    c-6.673,0-12.13,5.199-12.424,11.836c-0.124,2.792-2.428,4.993-5.229,4.993h-26.89c-2.891,0-5.234-2.339-5.234-5.223    s2.344-5.223,5.234-5.223h22.435c2.643-9.754,11.55-16.829,22.108-16.829c7.87,0,15.106,4.022,19.281,10.49    c11.974,0.743,21.487,10.682,21.487,22.791c0,12.111-9.515,22.05-21.491,22.791c-2.124,3.282-5.08,6.005-8.563,7.844    C319.426,183.356,318.589,183.551,317.763,183.551z"/><g><g><g><path d="M266.037,189.19l33.26,22.332l10.488-2.772c1.191-0.314,2.237-1.038,2.946-2.037l10.729-15.511       c2.946-4.259,1.792-10.241-2.505-13.121l-31.307-20.988c-4.349-2.586-10.272-1.782-13.19,2.629l-10.039,15.177       c-0.529,0.828-0.812,1.858-0.775,2.915L266.037,189.19z"/></g></g><path d="M106.47,285.277c-10.154,0-19.845,5.453-25.092,14.16c-8.508,14.119-3.244,33.014,11.189,40.827l72.411,39.196     c12.386,6.706,27.736,2.512,34.943-9.548l90.651-151.658l-27.647-18.563l-87.561,122.824c-2.137,2.454-4.6,2.842-7.389,1.164     l-43.957-32.612C118.916,287.281,112.738,285.277,106.47,285.277z"/></g><g><path d="M232.898,0l-72.825,0.001c-44.669,0.032-80.996,35.852-80.976,79.848c0.008,18.755,0.009,38.317,0.006,56.076     c-0.004,24.393,15.183,46.013,37.673,54.726l0.021-35.563l-4.353-3.49c-11.549-9.261-12.483-27.13-1.969-37.552     c9.836-9.752,25.908-9.837,35.824-0.186l0.252,0.245c4.241-5.866,4.366-13.889,0.203-19.873     c-12.641-18.168,1.171-43.599,23.059-43.599l63.097-0.032c13.968-0.007,25.37-11.319,25.416-25.216     C258.374,11.551,246.695,0,232.898,0z"/><path d="M127.176,204.235l-0.285,28.856c-0.023,14.41,12.214,26.249,26.514,26.249c12.231-0.02,22.197-9.902,22.218-22.027     l0.054-32.187C175.677,205.125,130.922,204.841,127.176,204.235z"/><path d="M116.481,227.064c-38.482,9.601-67.664,42.489-71.925,82.001l-11.28,104.59C30.17,442.471,53.845,468,82.601,468h130.923     c12.233,0,22.185-9.848,22.185-21.952V330.433l-26.796,44.831c-10.095,16.888-31.584,22.767-48.926,13.379l-72.411-39.196     c-19.645-10.633-26.743-36.186-15.17-55.393c11.955-19.839,39.28-25.152,57.86-11.37l39.667,29.43l40.655-57.029     c-7.059-7.636-15.383-14.129-24.493-19.123c0.49,18.244-14.321,33.794-32.671,33.824c-20.087,0.11-37.034-16.63-37.001-36.755     L116.481,227.064z"/><path d="M260.189,103.59l-18.794-20.394c-1.257-1.365-1.57-3.964-1.37-5.835c0.03-5.623-0.563-11.225-1.765-16.713     c-1.763,0.264-68.441,0.43-68.441,0.43c-13.919,0.01-22.185,15.916-14.35,27.362c6.899,10.079,6.303,23.671-1.473,33.131     c-4.695,7.166-9.993,5.471-15.006-0.233c-5.849-5.691-15.331-5.638-21.137,0.118c-6.139,6.086-5.62,16.57,1.148,21.999l6.31,5.06     c1.237,0.992,1.956,2.491,1.955,4.074l-0.025,41.052c3.695,0.701,7.457,1.055,11.228,1.055c0.014,0,0.029,0,0.043,0l74.995-0.035     c15.753-0.007,27.827-15.402,23.671-30.748c-0.216-0.797-0.305-1.635-0.148-2.445c0.468-2.406,2.417-4.059,4.673-4.269l0,0     c1.926-0.177,2.683-2.585,1.203-3.828l-9.463-7.953c-2.929-2.38-2.132-7.182,1.132-8.805l10.498-5.223     c2.123-1.057,2.795-3.759,1.411-5.683c-0.824-1.009-2.092-2.618-2.442-3.875c-0.679-2.436,0.393-4.82,2.376-5.985l13.058-7.669     C261.162,107.188,261.421,104.927,260.189,103.59z M202.93,119.389c-3.776,0.015-6.822-3.63-6.804-8.14     c0.018-4.511,3.094-8.179,6.87-8.194c3.776-0.015,6.822,3.63,6.804,8.14C209.782,115.706,206.706,119.374,202.93,119.389z      M219.176,91.742c-1.627,1.64-4.279,1.654-5.922,0.03c-5.99-5.917-15.848-6.01-21.976-0.21c-4.286,3.573-9.81-1.644-5.764-6.063     c9.532-9.025,24.306-8.878,33.631,0.334C220.79,87.456,220.803,90.102,219.176,91.742z"/></g></g><g><path d="M390.688,35.919c-15.296,0-27.696,12.352-27.696,27.59c0,15.238,12.4,27.59,27.696,27.59    c15.296,0,27.696-12.352,27.696-27.59C418.384,48.272,405.984,35.919,390.688,35.919z M388.488,69.553    c-4.207,0-7.618-3.397-7.618-7.588s3.411-7.588,7.618-7.588s7.618,3.397,7.618,7.588S392.695,69.553,388.488,69.553z"/><path d="M390.688,43.606c-3.059,0-5.539-2.471-5.539-5.518V24.885c0-3.047,2.48-5.518,5.539-5.518s5.539,2.471,5.539,5.518v13.203    C396.227,41.135,393.747,43.606,390.688,43.606z"/><path d="M372.644,51.052c-1.418,0-2.836-0.539-3.917-1.617l-9.371-9.336c-2.163-2.155-2.163-5.648,0.001-7.803    c2.163-2.154,5.671-2.154,7.833,0.001l9.371,9.336c2.163,2.155,2.163,5.648-0.001,7.803    C375.479,50.513,374.061,51.052,372.644,51.052z"/><path d="M365.17,69.028h-13.253c-3.059,0-5.539-2.471-5.539-5.518c0-3.047,2.48-5.518,5.539-5.518h13.253    c3.059,0,5.539,2.471,5.539,5.518C370.71,66.557,368.229,69.028,365.17,69.028z"/><path d="M363.273,96.339c-5.001,0-7.262-6.087-3.917-9.42l9.371-9.336c2.163-2.154,5.67-2.154,7.834,0    c2.163,2.155,2.163,5.648,0,7.804l-9.371,9.336C366.108,95.8,364.691,96.339,363.273,96.339z"/><path d="M390.688,107.652c-3.059,0-5.539-2.471-5.539-5.518V88.931c0-3.047,2.48-5.518,5.539-5.518s5.539,2.471,5.539,5.518    v13.203C396.227,105.181,393.747,107.652,390.688,107.652z"/><path d="M418.103,96.339c-1.418,0-2.835-0.539-3.917-1.616l-9.371-9.336c-2.163-2.155-2.163-5.649,0-7.804    c2.164-2.154,5.671-2.153,7.834,0l9.371,9.336C425.365,90.252,423.104,96.339,418.103,96.339z"/><path d="M429.459,69.028h-13.253c-3.059,0-5.539-2.471-5.539-5.518c0-3.047,2.48-5.518,5.539-5.518h13.253    c3.059,0,5.539,2.471,5.539,5.518C434.998,66.557,432.518,69.028,429.459,69.028z"/><path d="M408.732,51.052c-1.418,0-2.835-0.538-3.916-1.616c-2.164-2.155-2.164-5.648-0.001-7.803l9.371-9.336    c2.163-2.155,5.671-2.156,7.833-0.001c2.164,2.155,2.164,5.648,0.001,7.803l-9.371,9.336    C411.567,50.513,410.149,51.052,408.732,51.052z"/></g><g><path d="M357.455,263.253c-15.296,0-27.696,12.353-27.696,27.59c0,15.238,12.4,27.59,27.696,27.59    c15.296,0,27.696-12.352,27.696-27.59C385.151,275.605,372.751,263.253,357.455,263.253z M353.853,296.887    c-4.207,0-7.618-3.397-7.618-7.588s3.411-7.588,7.618-7.588c4.207,0,7.618,3.397,7.618,7.588S358.06,296.887,353.853,296.887z"/><path d="M357.455,270.939c-3.059,0-5.539-2.471-5.539-5.518v-13.203c0-3.047,2.48-5.518,5.539-5.518s5.539,2.471,5.539,5.518    v13.203C362.994,268.469,360.514,270.939,357.455,270.939z"/><path d="M339.411,278.385c-1.418,0-2.835-0.539-3.917-1.616l-9.371-9.336c-2.163-2.155-2.163-5.649,0-7.804    c2.165-2.154,5.671-2.154,7.834,0l9.371,9.336c2.163,2.155,2.163,5.649,0,7.804C342.246,277.846,340.828,278.385,339.411,278.385z    "/><path d="M331.937,296.361h-13.253c-3.059,0-5.539-2.471-5.539-5.518c0-3.047,2.48-5.518,5.539-5.518h13.253    c3.059,0,5.539,2.471,5.539,5.518C337.477,293.89,334.996,296.361,331.937,296.361z"/><path d="M330.04,323.672c-5,0-7.262-6.087-3.917-9.419l9.371-9.336c2.163-2.155,5.671-2.156,7.833-0.001    c2.164,2.155,2.164,5.648,0.001,7.803l-9.371,9.336C332.875,323.134,331.458,323.672,330.04,323.672z"/><path d="M357.455,334.985c-3.059,0-5.539-2.471-5.539-5.518v-13.203c0-3.047,2.48-5.518,5.539-5.518s5.539,2.471,5.539,5.518    v13.203C362.994,332.515,360.514,334.985,357.455,334.985z"/><path d="M384.87,323.672c-1.418,0-2.836-0.539-3.917-1.617l-9.371-9.336c-2.163-2.155-2.163-5.648,0.001-7.803    c2.164-2.154,5.672-2.154,7.833,0.001l9.371,9.336C392.132,317.585,389.87,323.672,384.87,323.672z"/><path d="M396.226,296.361h-13.253c-3.059,0-5.539-2.471-5.539-5.518c0-3.047,2.48-5.518,5.539-5.518h13.253    c3.059,0,5.539,2.471,5.539,5.518C401.765,293.89,399.285,296.361,396.226,296.361z"/><path d="M375.499,278.385c-1.418,0-2.835-0.539-3.917-1.616c-2.163-2.155-2.163-5.648,0-7.804l9.371-9.336    c2.163-2.154,5.67-2.154,7.834,0c2.163,2.155,2.163,5.648,0,7.804l-9.371,9.336C378.334,277.846,376.916,278.385,375.499,278.385z    "/></g></g><g/><g/><g/><g/><g/><g/><g/><g/><g/><g/><g/><g/><g/><g/><g/></svg>