<?xml version="1.0" encoding="utf-8"?>
<svg data-name="Layer 1" id="Layer_1" viewBox="0 0 512 512" xmlns="http://www.w3.org/2000/svg">
  <path d="M 186.653 287.732 C 210.826 307.636 240.111 310.931 251.423 311.194 L 250.446 311.171 L 250.446 311.365 L 255.469 311.222 C 255.525 311.225 255.562 311.226 255.617 311.231 C 255.79 311.242 256.07 311.259 256.406 311.275 C 257.072 311.306 258.082 311.34 259.35 311.34 C 269.863 311.34 300.202 308.502 325.249 287.826 C 345.199 270.167 357.286 243.306 359.838 210.446 C 365.395 110.918 269.285 32.975 264.911 29.563 C 262.695 28.06 258.814 26.495 256.005 26.495 C 253.218 26.495 249.573 27.868 247.337 29.384 C 242.982 32.822 146.612 110.835 152.165 210.362 C 154.709 243.225 166.705 270.05 186.653 287.732 Z M 256.008 60.006 C 279.199 80.617 337.56 134.059 331.014 208.402 C 328.932 242.597 316.649 263.992 292.591 274.885 C 280.859 280.445 268.225 282.886 255.244 282.334 C 242.608 282.769 230.87 280.311 219.455 274.879 C 195.391 263.985 183.123 242.51 181.039 208.313 C 174.438 134.134 232.828 80.653 256.008 60.006 Z"/>
  <path d="M 212.382 251.036 C 199.826 239.91 192.221 222.95 190.619 202.519 L 190.235 197.05 L 191.744 196.809 C 192.252 195.647 192.764 194.696 193.637 193.565 L 193.707 193.476 L 193.749 193.434 L 193.78 193.403 C 195.744 191.461 199.305 189.707 202.223 189.287 L 202.349 189.269 L 202.419 189.269 L 202.476 189.269 C 205.524 189.306 209.184 190.685 211.261 192.255 L 211.362 192.331 L 211.412 192.381 L 211.449 192.418 C 213.413 194.412 215.126 197.927 215.52 200.849 C 216.436 215.533 220.674 225.584 228.782 232.243 C 239.603 242.488 252.557 241.125 254.953 240.987 L 258.163 240.507 L 258.903 241.287 C 259.135 241.338 259.21 241.35 259.79 241.521 L 267.078 243.725 L 264.347 244.017 L 262.292 242.492 L 262.606 242.725 L 262.922 242.96 L 263.24 243.196 L 263.563 243.437 C 263.757 243.584 264.19 243.948 264.325 244.06 C 266.263 246.003 268.015 249.614 268.439 252.52 L 268.456 252.939 C 268.456 252.945 268.456 252.977 268.456 252.977 C 268.363 255.938 266.996 259.471 265.447 261.526 L 265.382 261.609 L 265.345 261.647 L 265.305 261.688 C 263.415 263.577 260.209 265.27 257.432 265.768 L 256.938 265.852 L 256.623 265.852 C 256.195 265.88 255.465 265.92 254.12 265.92 C 247.52 265.92 228.246 264.014 212.382 251.036 Z"/>
  <path d="M 133.7 272.627 C 135.468 271.44 138.574 270.229 140.54 269.885 L 140.953 269.826 L 141.024 269.826 L 141.489 269.827 C 143.443 269.908 146.166 270.558 147.77 271.216 C 149.782 272.146 152.464 274.225 153.805 275.766 L 154.068 276.105 L 154.159 276.259 L 154.257 276.422 L 154.354 276.587 C 155.324 278.404 156.166 281.31 156.389 283.053 C 156.526 285.081 156.164 287.967 155.682 289.638 L 155.553 290.034 L 155.458 290.239 L 155.429 290.302 L 155.371 290.428 L 155.288 290.597 C 154.356 292.332 152.245 294.816 150.487 296.197 C 144.741 300.261 140.11 304.227 140.11 309.55 C 140.11 313.061 141.665 315.895 146.769 320.075 C 152.032 324.796 159.574 329.041 169.953 333.048 C 190.99 341.331 220.441 346.86 256 346.86 C 291.561 346.86 321.031 341.333 342.071 333.054 C 352.445 329.053 360.07 324.725 365.338 320.002 C 370.436 315.827 371.89 313.081 371.89 309.55 C 371.89 304.215 367.242 300.231 361.5 296.17 C 359.905 294.97 357.698 292.476 356.661 290.702 L 356.437 290.27 L 356.318 289.924 L 356.269 289.783 C 355.649 287.814 355.362 284.82 355.492 282.969 C 355.765 280.733 356.937 277.539 357.996 275.803 L 358.27 275.424 L 358.316 275.371 L 358.367 275.312 L 358.43 275.24 L 358.465 275.201 L 358.583 275.07 C 359.991 273.614 362.478 271.927 363.986 271.187 C 365.635 270.502 368.611 269.823 370.593 269.737 L 371.076 269.737 L 371.285 269.767 L 371.362 269.778 L 371.527 269.802 L 371.649 269.821 C 373.806 270.23 376.798 271.557 378.517 272.778 C 396 286.144 400.82 300.673 400.82 309.55 C 400.82 319.502 395.742 329.871 388.382 337.904 C 380.966 345.545 369.952 352.695 357.127 358.269 C 331.751 369.068 295.926 375.79 256 375.79 C 216.075 375.79 180.223 369.06 154.85 358.26 C 142.021 352.683 130.958 345.464 123.544 337.825 C 116.179 329.786 111.18 319.498 111.18 309.55 C 111.18 302.23 114.557 291.02 125.36 279.91 L 123.318 279.91 L 131.097 274.453 Z"/>
  <path d="M 476.39 315.209 C 475.534 347.577 450.138 377.47 410.7 397.654 C 371.493 417.249 316.579 429.51 255.99 429.51 C 195.401 429.51 140.46 417.234 101.251 397.641 C 61.825 377.471 35.59 347.533 35.59 315.12 C 35.59 295.807 45.235 276.424 61.208 260.497 C 77.206 245.035 100.908 231.207 129.934 220.841 C 131.981 220.133 135.294 219.783 137.369 219.985 L 137.825 220.05 L 137.892 220.069 L 138.202 220.159 L 138.373 220.21 C 140.312 220.855 142.856 222.332 144.254 223.477 C 145.886 224.939 147.795 227.592 148.633 229.474 L 148.83 229.957 L 148.881 230.182 L 148.934 230.404 L 148.963 230.538 C 149.358 232.562 149.306 235.607 149.007 237.329 C 148.534 239.315 147.333 241.962 146.365 243.426 L 146.093 243.812 L 145.909 244.007 L 145.774 244.152 L 145.694 244.235 C 144.286 245.617 141.659 247.312 139.613 248.108 C 115.203 256.704 96.443 267.291 83.406 279.463 C 70.424 291.128 64.53 302.544 64.53 315.12 C 64.53 326.175 68.968 335.893 78.563 345.975 C 88.14 356.47 101.781 365.659 119.381 373.804 C 154.791 390.413 202.928 400.58 255.99 400.58 C 309.052 400.58 357.21 390.405 392.62 373.796 C 410.219 365.653 423.893 356.419 433.471 345.922 C 443.068 335.84 447.46 326.176 447.46 315.12 C 447.46 302.544 441.525 291.084 428.548 279.418 C 415.519 267.249 396.752 256.694 372.352 248.102 C 370.406 247.383 367.562 245.549 366.051 244.068 L 365.791 243.784 L 365.635 243.572 L 365.526 243.422 L 365.423 243.271 C 364.328 241.549 363.283 238.79 362.918 237.016 C 362.578 234.847 362.805 231.48 363.344 229.495 L 363.489 229.056 L 363.544 228.945 L 363.581 228.868 L 363.617 228.794 L 363.641 228.744 L 363.676 228.674 L 363.723 228.579 C 364.695 226.758 366.651 224.435 367.974 223.283 C 369.597 222.035 372.169 220.748 373.847 220.225 L 374.321 220.091 L 374.383 220.081 L 374.461 220.07 L 374.54 220.059 L 374.639 220.045 L 374.816 220.023 L 374.923 220.01 C 376.876 219.829 379.964 220.169 382.055 220.843 C 411.164 231.218 434.842 245.076 450.834 260.536 C 466.81 276.484 476.043 295.952 476.39 315.209 Z"/>
</svg>