<?xml version="1.0" encoding="UTF-8" standalone="no"?>
<!-- Created with Inkscape (http://www.inkscape.org/) -->

<svg
   version="1.1"
   id="svg351"
   width="682.66669"
   height="682.66669"
   viewBox="0 0 682.66669 682.66669"
   sodipodi:docname="1244416.png"
   inkscape:export-filename="../13bc553a/aa.svg"
   inkscape:export-xdpi="5.625"
   inkscape:export-ydpi="5.625"
   xmlns:inkscape="http://www.inkscape.org/namespaces/inkscape"
   xmlns:sodipodi="http://sodipodi.sourceforge.net/DTD/sodipodi-0.dtd"
   xmlns="http://www.w3.org/2000/svg"
   xmlns:svg="http://www.w3.org/2000/svg">
  <defs
     id="defs355" />
  <sodipodi:namedview
     id="namedview353"
     pagecolor="#ffffff"
     bordercolor="#000000"
     borderopacity="0.25"
     inkscape:showpageshadow="2"
     inkscape:pageopacity="0.0"
     inkscape:pagecheckerboard="0"
     inkscape:deskcolor="#d1d1d1"
     showgrid="false" />
  <g
     inkscape:groupmode="layer"
     inkscape:label="Image"
     id="g357">
    <a
       id="a953">
      <path
         style="fill:#000000;stroke-width:1.33333"
         d="M 316.42628,530.05231 C 281.60027,526.69643 241.24064,514.61315 207.47013,497.43191 174.54911,480.68287 147.75579,459.83346 122.05741,434.24663 96.359027,408.6598 76.054292,388.69969 55.451512,351.0244 l -9.55555,-17.47376 7.64486,-14.33808 c 31.38924,-58.87115 70.579978,-99.00241 121.929308,-133.30017 37.03298,-24.73544 78.38646,-41.0578 124.66667,-49.20637 15.30739,-2.69518 59.65221,-3.83899 76.63097,-1.97659 74.42083,8.16324 145.71091,44.12914 200.06783,100.93435 15.36054,16.0524 27.46214,31.28039 40.69674,51.2107 11.318,17.04396 28.5987,43.40396 28.6024,46.25075 0.001,0.87125 -3.9733,4.97125 -8.8321,14 -67.87115,126.11945 -191.537,195.39042 -320.87636,182.92708 z m 72.37719,-45.68293 c 77.3201,-13.61598 148.46342,-63.99586 193.74597,-137.20049 4.1731,-6.74625 7.5874,-12.96969 7.5874,-13.82986 0,-2.44239 -14.07188,-24.53598 -24.07425,-37.79789 C 498.46848,205.91973 396.0903,167.35998 297.00798,187.69217 219.75496,203.54487 148.90864,252.64856 105.5836,327.17656 l -3.66356,6.30207 7.06225,11.69793 c 24.40101,40.41785 62.1841,78.91754 101.2742,103.19496 31.50942,19.56932 72.19038,33.95144 108.54698,38.37508 16.29812,1.98306 52.15446,0.76536 70,-2.37722 z m -61.04403,-75.42729 c -27.79608,-6.73037 -51.80085,-31.4159 -57.50252,-59.13324 -9.84917,-47.87951 26.27506,-93.42076 74.54655,-93.97967 36.19783,-0.41912 66.55611,22.16783 76.74906,57.10224 2.81841,9.65958 3.16709,27.82955 0.72813,37.94306 -6.74645,27.97517 -29.03345,50.70897 -56.80335,57.94211 -9.40989,2.45097 -27.86028,2.51236 -37.71787,0.12546 z"
         id="path958"
         sodipodi:nodetypes="sszscssssssscssssssscssssssssssss" />
    </a>
  </g>
</svg>
