<?xml version="1.0" ?><!DOCTYPE svg  PUBLIC '-//W3C//DTD SVG 1.1//EN'  'http://www.w3.org/Graphics/SVG/1.1/DTD/svg11.dtd'><svg enable-background="new 0 0 64 64" height="64px" id="Layer_1" version="1.1" viewBox="0 0 64 64" width="64px" xml:space="preserve" xmlns="http://www.w3.org/2000/svg" xmlns:xlink="http://www.w3.org/1999/xlink"><g><path d="M57.979,28.685c7.139-5.915,2.448-15.072,2.448-15.072L51.486,0.056l-1.439,17.667   c0,0,1.298-1.153,3.102-3.532c2.665,3.388,3.747,7.931,0,10.383c-6.925,4.542-9.664-3.534-9.664-3.534s-3.895-9.733-6.417-17.667   c-2.525,2.596-6.062,2.092-6.062,2.092s3.536,11.394,7.357,19.759C43.558,32.867,50.84,34.597,57.979,28.685z" fill="#241F20"/><path d="M37.299,37.52c-1.294-2.251-4.119-4.796-10.142-6.423l1.328,7.356c-4.897,1.351-10.245,4.205-15.92,9.276   L2.06,38.97c0,0,3.097,12.396,0,23.714c4.482-4.119,8.27-7.338,10.798-9.398C26.012,63.564,39.1,72.044,59.955,50.654   C59.955,50.654,51.263,38.436,37.299,37.52z" fill="#241F20"/></g></svg>