<?xml version="1.0" ?><svg id="Layer_1" style="enable-background:new 0 0 512 512;" version="1.1" viewBox="0 0 512 512" xml:space="preserve" xmlns="http://www.w3.org/2000/svg" xmlns:xlink="http://www.w3.org/1999/xlink"><g id="Layer_2_00000147218074521992031520000001527640378603649705_"><g id="Layer_1-2"><g id="fish"><path d="M4.1,155.3C110.6,263.2,253.7,293,389.2,166.9c19.4,17.1,59.3,46.8,107.6,53.1c7.4,0.8,14.1-4.5,14.9-11.9     c0.6-5.6-2.3-11-7.4-13.5c-20.4-9.9-36.2-27.5-43.9-48.8c7.7-21.4,23.5-38.9,43.9-48.8c6.5-3.7,8.7-11.9,5-18.4     c-2.5-4.5-7.4-7.1-12.5-6.8c-48.3,5.9-88.3,35.6-107.4,52.7C252.8-2,110.5,28.6,4.4,135.6c-5.5,5.1-5.9,13.7-0.8,19.2     C3.8,155,3.9,155.2,4.1,155.3L4.1,155.3z M103.1,95.4c3-1.6,6.1-3.2,9.3-4.7c19.1,34.3,19.1,76,0,110.3     c-29.1-14.5-56-33.1-79.9-55.2c21.4-19.7,45.1-36.7,70.6-50.6V95.4z M443.5,118.5c-4.3,7.5-7.7,15.5-10,23.9     c-0.6,2.2-0.6,4.5,0,6.7c2.3,8.3,5.7,16.4,10,23.9c-13.4-7.8-26-16.9-37.5-27.2C417.5,135.4,430.1,126.2,443.5,118.5z      M372.4,145.7c-42.1,41.2-141.8,104.6-235.1,65.8c21.8-41.1,21.8-90.4,0-131.5C230.6,41,330.4,104.6,372.4,145.7z"/><path d="M97.1,150c9.5,0,17.2-7.7,17.2-17.2s-7.7-17.2-17.2-17.2S80,123.4,80,132.8S87.7,150,97.1,150z"/><path d="M511.9,364.5c-5.8-16.9-98.2-102.2-202.4-103c-86.6,0-158.8,57.8-186.7,83.6c-19.4-17.1-59.2-46.8-107.6-53.1     c-7.4-1-14.1,4.2-15.1,11.6c-0.8,5.8,2.3,11.4,7.6,13.9c20.5,9.9,36.3,27.4,44,48.8c-7.8,21.4-23.6,38.9-44,48.9     c-7.2,2.1-11.3,9.6-9.2,16.7c2.1,7.2,9.6,11.3,16.7,9.2l0,0c48.4-6.3,88.3-36,107.6-53.1c136.8,126,278.7,95.4,384.8-11.7     C510.9,373.4,512.5,368.9,511.9,364.5L511.9,364.5z M452.7,388.6c-16.7,12.6-34.5,23.5-53.3,32.5c-18.8-34.2-18.8-75.6,0-109.8     c29.1,14.5,56,33.1,79.9,55.2C473.3,372.1,463.9,380.2,452.7,388.6L452.7,388.6z M68.5,393.5c4.2-7.5,7.6-15.5,10-23.9     c0.5-2.2,0.5-4.5,0-6.7c-2.4-8.3-5.7-16.3-10-23.9c13.4,7.8,26,16.9,37.5,27.3C94.5,376.7,81.9,385.8,68.5,393.5L68.5,393.5z      M139.8,366.4c41.9-41.2,141.6-104.9,234.9-65.8c-21.8,41.1-21.8,90.4,0,131.5C281.4,471.1,181.7,407.4,139.8,366.4L139.8,366.4z     "/><path d="M414.9,336.3c-9.5,0-17.2,7.7-17.2,17.2c0,9.5,7.7,17.1,17.2,17.2c9.5,0,17.2-7.7,17.2-17.2     C432,344,424.3,336.3,414.9,336.3L414.9,336.3L414.9,336.3z"/></g></g></g></svg>