<?xml version="1.0" ?><svg id="Layer_1" style="enable-background:new 0 0 512 512;" version="1.1" viewBox="0 0 512 512" xml:space="preserve" xmlns="http://www.w3.org/2000/svg" xmlns:xlink="http://www.w3.org/1999/xlink"><g id="XMLID_19623_"><g id="XMLID_7167_"><path d="M121.9,342.6c-2.8,0-5.7-0.1-8.7-0.2c-19.9-0.8-36.3-5.3-48.8-13.5c-3.4-2.2-6.5-4.7-9.4-7.4    c-5.4-5.1-9.7-11.4-12.8-18.6c-11-26.1-16.1-57.7-13.5-84.5c2-21.4,13.4-35.9,33.8-43.2c25.3-9.1,59.4-5.5,84.3-2.9l3.6,0.4    c14.9,1.6,30,4,44.9,7.2c17.8,3.9,32.5,17.4,38.2,35.2c3.9,12.2,1.6,24.8-0.7,36.9c-0.3,1.7-0.6,3.3-0.9,4.9    c-0.4,2.1-0.7,4.3-1.1,6.4c-2.2,13.2-4.6,26.8-9.5,39.2c-5.5,13.9-16.1,23.5-32.5,29.5c-9.9,3.6-20.4,5.4-30.6,7.2    c-1.8,0.3-3.7,0.6-5.5,1C143.1,341.8,132.7,342.6,121.9,342.6z M63.5,178l1,2.8c-18.3,6.6-28.1,19.1-29.9,38.2    c-2.5,25.9,2.4,56.4,13.1,81.6c2.7,6.5,6.6,12.1,11.4,16.6c2.6,2.5,5.5,4.7,8.6,6.7c11.6,7.6,27,11.8,45.8,12.5    c13.6,0.5,26.5-0.2,38.2-2.3c1.8-0.3,3.7-0.6,5.5-1c9.9-1.7,20.2-3.5,29.6-6.9c14.6-5.3,24.1-13.8,28.9-26    c4.7-11.8,6.9-25.1,9.1-38c0.4-2.2,0.7-4.3,1.1-6.4c0.3-1.6,0.6-3.3,0.9-5c2.1-11.4,4.3-23.3,0.9-34c-5.1-15.8-18-27.7-33.8-31.1    c-14.6-3.2-29.5-5.6-44.2-7.1l-3.6-0.4c-24.3-2.6-57.7-6.1-81.7,2.5L63.5,178z" id="XMLID_11927_"/></g><g id="XMLID_458_"><path d="M388.7,342.6c-10.9,0-21.2-0.9-30.8-2.6c-1.8-0.3-3.7-0.6-5.5-1c-10.2-1.7-20.7-3.5-30.6-7.2    c-16.3-5.9-26.9-15.6-32.5-29.5c-4.9-12.4-7.2-26-9.5-39.2c-0.4-2.2-0.7-4.3-1.1-6.4c-0.3-1.6-0.6-3.3-0.9-4.9    c-2.3-12.2-4.6-24.8-0.7-36.9c5.7-17.8,20.4-31.3,38.2-35.2c14.8-3.2,29.9-5.7,44.9-7.2l3.6-0.4c24.9-2.6,59-6.2,84.3,2.9    c20.4,7.3,31.8,21.9,33.8,43.2c2.5,26.8-2.5,58.4-13.5,84.5c-3.1,7.3-7.4,13.5-12.8,18.6c-2.9,2.7-6.1,5.2-9.4,7.4    c-12.5,8.2-28.9,12.7-48.8,13.5C394.5,342.6,391.6,342.6,388.7,342.6z M407.2,175.4c-15,0-30.1,1.6-42.8,2.9l-3.6,0.4    c-14.7,1.5-29.6,3.9-44.2,7.1c-15.7,3.4-28.7,15.4-33.8,31.1c-3.4,10.7-1.2,22.5,0.9,34c0.3,1.7,0.6,3.3,0.9,5    c0.4,2.1,0.7,4.3,1.1,6.4c2.2,12.9,4.5,26.2,9.1,38c4.9,12.2,14.3,20.7,28.9,26c9.4,3.4,19.7,5.2,29.6,6.9c1.8,0.3,3.7,0.6,5.5,1    c11.7,2.1,24.6,2.8,38.2,2.3c18.8-0.8,34.2-5,45.8-12.5c3.1-2,6-4.3,8.6-6.7c4.8-4.5,8.6-10.1,11.4-16.6    c10.7-25.2,15.5-55.7,13.1-81.6c-1.8-19.1-11.6-31.6-29.9-38.2l0,0C434.6,176.7,420.9,175.4,407.2,175.4z" id="XMLID_11924_"/></g><g id="XMLID_457_"><path d="M237.6,231.2c-4.5,0-4.8-0.3-5.5-1c-0.6-0.6-0.9-1.4-0.9-2.2c0-1.7,1.3-3,3-3c0.3,0,0.6,0,0.9,0.1    c3.5,0.2,26.7-0.7,41-1.4c1.7-0.1,3.1,1.2,3.1,2.9c0.1,1.7-1.2,3.1-2.9,3.1c-0.1,0-10.4,0.5-20.7,0.9    C246.3,231.1,240.9,231.2,237.6,231.2z M237.1,227.2c0.1,0.3,0.1,0.5,0.1,0.8C237.2,227.8,237.2,227.5,237.1,227.2z" id="XMLID_11919_"/></g><g id="XMLID_459_"><path d="M237.6,242.4c-4.5,0-4.8-0.3-5.5-1c-0.6-0.6-0.9-1.4-0.9-2.2c0-1.7,1.3-3,3-3c0.3,0,0.6,0,0.9,0.1    c3.5,0.2,26.7-0.7,41-1.4c1.7-0.1,3.1,1.2,3.1,2.9c0.1,1.7-1.2,3.1-2.9,3.1c-0.1,0-10.4,0.5-20.7,0.9    C246.3,242.2,240.9,242.4,237.6,242.4z M237.1,238.4c0.1,0.3,0.1,0.5,0.1,0.8C237.2,238.9,237.2,238.7,237.1,238.4z" id="XMLID_11916_"/></g><g id="XMLID_7071_"><g id="XMLID_7072_"><path d="M18.6,245.7c-4.6,0-9.1-0.9-11.8-4.7c-1.3-1.8-1.8-3.8-2.2-5.7c-2.3-11.7-1.8-18,1.7-20.4     c0.9-0.6,1.9-0.8,2.4-0.9c6.3-1.2,12.6-0.7,18.7-0.3c1.4,0.1,2.9,0.2,4.3,0.3c1.7,0.1,2.9,1.5,2.8,3.2c-0.1,1.7-1.5,2.9-3.2,2.8     c-1.5-0.1-2.9-0.2-4.4-0.3c-6-0.4-11.6-0.8-17.2,0.2c0,0-0.1,0-0.1,0c-0.2,0.5-1.4,3.4,0.8,14.2c0.3,1.3,0.6,2.5,1.2,3.4     c2,2.8,8.1,2.2,13,1.8c2.3-0.2,4.4-0.4,6.2-0.3c1.7,0.1,2.9,1.5,2.8,3.2c-0.1,1.7-1.5,2.9-3.2,2.8c-1.4-0.1-3.3,0.1-5.3,0.3     C23.2,245.5,20.9,245.7,18.6,245.7z" id="XMLID_11923_"/></g></g><g id="XMLID_7069_"><g id="XMLID_7070_"><path d="M478.8,247c-0.3,0-0.7-0.1-1-0.2c-1.6-0.6-2.4-2.3-1.8-3.8c0.9-2.6,3.9-2.9,5.6-3.1c0.1,0,0.2,0,0.3,0     c2.5-0.4,5.1-0.5,7.7-0.6c2.5-0.1,5.1-0.2,8.3-0.2c0.5,0,1,0,1.4,0c2.1,0.1,2.4,0,2.7-0.5c0.5-0.8,0.5-2.9,0.4-4.4     c0-0.7,0-1.5,0-2.2l0.3-8.1c0.1-2.5,0-3.3-0.9-4.1c-0.5-0.2-2.4,0-3.3,0.1c-0.7,0.1-1.4,0.2-2.1,0.2c-3,0.1-5.5,0.2-7.7,0.4     c-0.3,0-0.7,0-1.3,0c-3.9,0.1-5.6,0.4-6.2,0.6c-0.8,1.1-2.2,1.5-3.5,1c-1.6-0.6-2.4-2.3-1.8-3.8c1.2-3.3,5.8-3.7,11.3-3.8     c0.4,0,0.8,0,1,0c2.3-0.2,4.8-0.3,7.9-0.4c0.4,0,1-0.1,1.6-0.2c2.4-0.3,5.6-0.7,7.9,1.3c3.2,2.7,3.1,6.2,3,8.9l-0.3,8.1     c0,0.5,0,1.1,0,1.8c0.1,2.5,0.2,5.6-1.5,8c-2.3,3.3-5.6,3.2-7.9,3.1c-0.4,0-0.8,0-1.2,0c-3.1,0-5.7,0.1-8.1,0.2     c-2.5,0.1-4.8,0.2-7.1,0.6c-0.1,0-0.3,0-0.5,0.1c-0.3,0-0.8,0.1-1.2,0.2C480.4,246.6,479.6,247,478.8,247z" id="XMLID_11922_"/></g></g></g></svg>