<?xml version="1.0" encoding="UTF-8" standalone="no"?>
<!-- Created with Inkscape (http://www.inkscape.org/) -->

<svg
   version="1.1"
   id="svg198"
   width="682.66669"
   height="682.66669"
   viewBox="0 0 682.66669 682.66669"
   sodipodi:docname="morning_exercise.png"
   inkscape:export-filename="../fc72a2d4/morning_exercise.svg"
   inkscape:export-xdpi="96"
   inkscape:export-ydpi="96"
   xmlns:inkscape="http://www.inkscape.org/namespaces/inkscape"
   xmlns:sodipodi="http://sodipodi.sourceforge.net/DTD/sodipodi-0.dtd"
   xmlns="http://www.w3.org/2000/svg"
   xmlns:svg="http://www.w3.org/2000/svg">
  <defs
     id="defs202" />
  <sodipodi:namedview
     id="namedview200"
     pagecolor="#ffffff"
     bordercolor="#000000"
     borderopacity="0.25"
     inkscape:showpageshadow="2"
     inkscape:pageopacity="0.0"
     inkscape:pagecheckerboard="0"
     inkscape:deskcolor="#d1d1d1"
     showgrid="false" />
  <g
     inkscape:groupmode="layer"
     inkscape:label="Image"
     id="g204">
    <path
       style="fill:#000000;stroke-width:1.33333"
       d="m 325.75723,651.34708 c -6.8337,-2.04719 -13.73376,-7.9228 -17.63242,-15.01459 l -3.81779,-6.94463 0.63601,-35.33333 c 0.34982,-19.43334 0.63602,-48.13744 0.63602,-63.7869 V 501.81408 L 252.24571,479.1337 C 222.91238,466.6595 197.0071,455.01716 194.67842,453.26187 l -4.23395,-3.19145 -49.91662,79.65872 c -27.45413,43.81229 -52.848859,84.41191 -56.432709,90.22136 -10.30546,16.70523 -16.34949,21.57828 -28.55657,23.02403 -18.69453,2.21409 -34.6262,-11.91899 -34.6262,-30.71712 0,-4.19203 0.82284,-9.55259 1.82854,-11.91238 1.0057,-2.35977 52.1822,-84.69051 113.725559,-182.95718 70.17816,-112.05392 113.27887,-182.14644 115.6034,-188 17.50184,-44.07255 55.31159,-96.88503 96.17585,-134.33798 28.4052,-26.033955 71.56316,-56.564588 81.92385,-57.954249 12.31124,-1.651283 23.77243,9.567679 22.38146,21.908423 -0.88436,7.846001 -3.97811,11.837021 -14.41221,18.592151 -4.70786,3.04793 -14.55977,9.74475 -21.8931,14.881825 -42.02702,29.44034 -82.39522,72.64876 -107.35647,114.90983 -9.962,16.86633 -16.82263,30.29581 -15.90302,31.1297 0.32604,0.29566 16.71168,10.63789 36.41251,22.98273 31.28143,19.60142 36.73596,23.52522 43.05166,30.96981 13.98104,16.48005 29.66088,42.32649 47.1501,77.72162 7.48266,15.14356 9.31091,20.05866 9.3069,25.02086 -0.005,6.89638 -3.30875,13.45718 -8.48187,16.84674 -1.80445,1.18233 -24.48311,7.52854 -50.39699,14.1027 -25.91389,6.57418 -48.01616,12.3046 -49.11616,12.7343 -1.33953,0.52326 -0.0185,1.63989 4,3.38132 27.35731,11.85509 31.59123,14.03479 36.1851,18.62865 9.16989,9.1699 9.12609,8.5973 7.03394,91.95185 -2.00314,79.80857 -2.07338,80.46112 -9.62826,89.43959 -7.01811,8.34053 -21.63146,12.37894 -32.74593,9.04936 z m 53.53043,-269.89005 c 1.28878,-1.28879 -24.82389,-46.3399 -27.00562,-46.5917 -1.12255,-0.1296 -40.55475,61.32835 -40.6595,63.37071 -0.0431,0.83999 66.56236,-15.67627 67.66512,-16.77901 z M 1.8207312,459.85176 c -0.4996,-0.49958 -0.90836,-2.00834 -0.90836,-3.3528 0,-2.31705 2.12402,-2.44444 40.7593998,-2.44444 h 40.7594 l -0.42607,3 -0.42606,3 -39.42498,0.3528 c -21.68374,0.19404 -39.8337398,-0.056 -40.3333298,-0.55556 z M 394.24572,457.3938 v -3.33928 h 13.58085 13.58087 l 6.75246,-5.61186 c 21.05498,-17.49842 34.5581,-31.06295 67.07117,-67.37623 21.99244,-24.56295 31.87651,-20.50395 63.22251,25.96293 9.7026,14.38291 21.0602,29.64505 25.2392,33.91588 8.3624,8.54615 19.2042,14.42591 26.5529,14.40031 l 4.6667,-0.0163 -5.66,-2.56922 c -3.1131,-1.41308 -8.0702,-4.5061 -11.016,-6.87336 -5.7628,-4.63111 -21.5465,-24.24569 -21.8228,-27.11939 -0.2987,-3.10712 14.2978,-19.15694 20.0534,-22.05011 5.1647,-2.59609 5.8916,-2.65132 10.3544,-0.78664 6.4845,2.70937 10.8896,7.72005 24.8173,28.22907 6.5134,9.59114 14.8389,20.24115 18.501,23.66667 l 6.6585,6.22821 h 13.4832 c 13.2199,0 13.4748,0.0585 13.0571,3 l -0.4261,3.00001 -144.3333,0.33928 -144.33336,0.3393 z M 98.60646,284.94465 c -4.523119,-1.70229 -6.709789,-1.8366 -11.048169,-0.67863 -5.33226,1.42327 -5.38245,1.40364 -3.54122,-1.38389 2.87696,-4.3556 7.99147,-5.62243 15.063109,-3.73105 6.04331,1.61633 6.15929,1.58489 11.30624,-3.06507 3.72179,-3.36241 6.43124,-4.69236 9.5298,-4.67775 7.13823,0.0336 8.44889,1.98864 2.52342,3.76395 -3.10194,0.92937 -7.19382,3.73711 -10.04403,6.89196 -5.29494,5.86085 -5.66477,5.93812 -13.78915,2.88048 z m -44.360759,-19.5568 c -5.71439,-2.2006 -12.63561,-2.46723 -16.08765,-0.61976 -3.53489,1.89181 -3.24497,-0.28977 0.50692,-3.81449 3.40065,-3.19475 8.85266,-3.71138 15.33157,-1.45282 3.82425,1.33315 4.5236,1.08224 8.94075,-3.20764 5.48913,-5.33097 10.16955,-6.94194 14.08328,-4.84738 2.49957,1.33773 2.17374,1.72805 -4.01827,4.81366 -3.70612,1.84684 -7.98335,5.10626 -9.50496,7.24316 -3.11634,4.3765 -2.89808,4.33202 -9.25164,1.88527 z m 302.000019,-5.13189 c -21.50349,-7.12647 -36.60163,-23.83647 -40.39509,-44.70757 l -1.24333,-6.84072 9.03885,-13.32449 c 10.35858,-15.26996 14.28307,-20.43223 26.9795,-35.48879 8.89025,-10.54284 9.31476,-10.84853 16.18665,-11.65619 22.85615,-2.68629 46.63146,11.23482 57.16482,33.47161 3.99773,8.43954 4.2686,9.94206 4.2686,23.67804 0,13.7203 -0.27402,15.24509 -4.24664,23.6311 -5.88695,12.42704 -14.61246,21.32989 -26.81642,27.36141 -9.11958,4.50714 -11.06565,4.95853 -22.78737,5.28556 -8.01556,0.22362 -14.81399,-0.30452 -18.14957,-1.40996 z m 198.43226,-4.30514 c -7.7295,-2.8495 -17.2434,-11.62115 -21.3111,-19.64841 -13.32308,-26.29178 5.9314,-57.53259 35.398,-57.43414 15.3637,0.0513 28.4069,8.24303 35.8567,22.51958 2.8243,5.41246 3.4892,8.5494 3.5339,16.67436 0.09,16.31888 -7.455,28.57925 -22.2802,36.20501 -7.3249,3.7678 -23.2173,4.62546 -31.1973,1.6836 z m 26.9011,-7.84342 c 14.7168,-6.06618 22.4213,-23.34039 17.8641,-40.05289 -2.0601,-7.55513 -13.2991,-18.2686 -21.6039,-20.5938 -20.0685,-5.61884 -39.3713,7.95126 -40.6863,28.60302 -0.6629,10.41146 1.3693,16.81338 7.4868,23.58472 9.697,10.73337 23.6627,13.93147 36.9393,8.45895 z M 108.91721,231.80789 c -2.98612,-1.29974 -7.15238,-1.82258 -11.590519,-1.45452 -6.44223,0.53424 -6.83472,0.39901 -5.59043,-1.92596 2.00016,-3.73734 7.147179,-5.20928 13.345589,-3.8166 2.95432,0.6638 5.71399,1.5494 6.1326,1.968 0.41861,0.41861 3.05676,-1.31288 5.86257,-3.84775 6.14476,-5.55143 10.80349,-6.93679 15.60034,-4.63907 l 3.56835,1.70927 -4.29994,0.9514 c -5.59505,1.23795 -10.25272,4.35392 -13.91746,9.31075 -3.35062,4.53194 -2.90358,4.44634 -9.1111,1.74448 z"
       id="path262" />
  </g>
</svg>
