<?xml version="1.0" encoding="UTF-8" standalone="no"?>
<svg
   enable-background="new 0 0 24 24"
   height="24"
   id="Layer_1"
   version="1.1"
   viewBox="0 0 24 24"
   width="24"
   xml:space="preserve"
   sodipodi:docname="pressure_icon.svg"
   inkscape:export-filename="pressure_icon.svg"
   inkscape:export-xdpi="96"
   inkscape:export-ydpi="96"
   xmlns:inkscape="http://www.inkscape.org/namespaces/inkscape"
   xmlns:sodipodi="http://sodipodi.sourceforge.net/DTD/sodipodi-0.dtd"
   xmlns="http://www.w3.org/2000/svg"
   xmlns:svg="http://www.w3.org/2000/svg"><defs
     id="defs585" /><sodipodi:namedview
     id="namedview583"
     pagecolor="#ffffff"
     bordercolor="#000000"
     borderopacity="0.25"
     inkscape:showpageshadow="2"
     inkscape:pageopacity="0.0"
     inkscape:pagecheckerboard="0"
     inkscape:deskcolor="#d1d1d1"
     showgrid="false" /><path
     d="m 12.087633,1.3076299 c -6.2267746,0 -10.7413237,4.5178804 -10.7413237,10.7446551 0,6.226775 4.5471717,10.600149 10.7739457,10.600149 6.226774,0 10.658963,-4.42162 10.658963,-10.648394 0,-6.2267744 -4.46481,-10.6964101 -10.691585,-10.6964101 z m -0.08408,20.1257471 c -3.4907672,0 -6.5098092,-1.886901 -8.2080204,-4.717253 h 6.5098094 c 0.283035,0.943451 0.943451,0.943451 1.603866,0.943451 0.660416,0 1.320831,0 1.603866,-0.943451 h 6.50981 c -1.509521,2.830352 -4.528563,4.717253 -8.019331,4.717253 z m -0.94345,-5.660704 c 0,-0.56607 0,-0.94345 0.94345,-8.4910554 C 12.947,14.829223 12.947,15.206603 12.947,15.772673 c 0,0.566071 -0.37738,0.943451 -0.943451,0.943451 -0.56607,0 -0.94345,-0.37738 -0.94345,-0.943451 z m 9.623196,0 h -6.792844 c 0,-0.94345 0,-3.773802 -1.886902,-11.3214074 C 10.116648,11.998871 10.116648,14.829223 10.116648,15.772673 H 3.3238033 C 2.8520779,14.829223 2.5690427,13.885772 2.5690427,11.998871 h 1.415176 c 0.2830352,0 0.4717253,-0.18869 0.4717253,-0.471725 0,-0.283036 -0.1886901,-0.471726 -0.4717253,-0.471726 H 2.6633878 C 2.7577329,10.11197 3.2294582,8.4137584 3.8898737,7.2816176 L 5.1163595,7.942033 C 5.3050496,8.036378 5.5880848,8.036378 5.776775,7.7533429 5.87112,7.5646528 5.776775,7.2816176 5.4937398,7.1872725 L 4.361599,6.5268571 C 5.1163595,5.3947163 6.1541552,4.5456107 7.286296,3.7908502 L 7.9467114,5.017336 C 8.1354016,5.3003712 8.4184368,5.3947163 8.6071269,5.2060262 8.795817,5.1116811 8.8901621,4.8286459 8.795817,4.5456107 L 8.1354016,3.4134699 C 9.2675424,2.8473995 10.588373,2.5643643 12.003549,2.5643643 c 1.415176,0 2.736007,0.2830352 3.868148,0.8491056 l -0.660416,1.1321408 c -0.09434,0.1886901 -0.09434,0.4717253 0.188691,0.6604155 0.283035,0.1886901 0.471725,0.094345 0.660415,-0.1886902 l 0.660415,-1.2264858 c 1.132141,0.6604154 2.169937,1.6038661 2.924698,2.6416618 l -1.132141,0.6604155 c -0.18869,0.094345 -0.283035,0.3773802 -0.18869,0.6604154 0.09435,0.1886901 0.37738,0.2830352 0.660415,0.1886901 L 20.21157,7.2816176 c 0.660415,1.1321408 1.132141,2.8303524 1.226486,3.7738024 h -1.320831 c -0.283035,0 -0.471725,0.18869 -0.471725,0.471726 0,0.283035 0.18869,0.471725 0.471725,0.471725 h 1.320831 c 0,1.886901 -0.283035,2.830352 -0.754761,3.773802 z"
     id="path580"
     sodipodi:nodetypes="ssssssccsccsscsssccccccssscccccccccccsccsccccccccssscc"
     style="stroke-width:0.943451" /></svg>
