<?xml version="1.0" encoding="UTF-8" standalone="no"?>
<!-- Created with Inkscape (http://www.inkscape.org/) -->

<svg
   version="1.1"
   id="svg1016"
   width="576.00006"
   height="576.00006"
   viewBox="0 0 576.00006 576.00006"
   sodipodi:docname="uv_icon02.svg"
   inkscape:export-filename="uv_icon02.svg"
   inkscape:export-xdpi="6.666666"
   inkscape:export-ydpi="6.666666"
   xmlns:inkscape="http://www.inkscape.org/namespaces/inkscape"
   xmlns:sodipodi="http://sodipodi.sourceforge.net/DTD/sodipodi-0.dtd"
   xmlns="http://www.w3.org/2000/svg"
   xmlns:svg="http://www.w3.org/2000/svg">
  <defs
     id="defs1020" />
  <sodipodi:namedview
     id="namedview1018"
     pagecolor="#ffffff"
     bordercolor="#000000"
     borderopacity="0.25"
     inkscape:showpageshadow="2"
     inkscape:pageopacity="0.0"
     inkscape:pagecheckerboard="0"
     inkscape:deskcolor="#d1d1d1"
     showgrid="false" />
  <g
     inkscape:groupmode="layer"
     inkscape:label="Image"
     id="g1022"
     transform="translate(-53.333336,-53.333336)">
    <path
       style="fill:#000000;stroke-width:0.960193"
       d="m 133.93146,525.69058 v -23.04466 h 38.40775 38.40777 v 23.04466 23.04464 h -38.40777 -38.40775 z m 92.17861,0 v -23.04466 h 34.56698 34.56699 v 23.04466 23.04464 h -34.56699 -34.56698 z m 84.49707,0 v -23.04466 h 38.40775 38.40776 v 23.04466 23.04464 h -38.40776 -38.40775 z m 92.17861,0 v -23.04466 h 30.72621 30.7262 v 23.04466 23.04464 h -30.7262 -30.72621 z m 76.81552,0 v -23.04466 h 34.56698 34.56697 v 23.04466 23.04464 H 514.16825 479.60127 Z M 374.20575,488.05295 C 373.1536,486.30912 357.93,460.68545 340.37554,431.11148 322.82107,401.53751 307.23938,375.32383 305.74955,372.85889 l -2.70876,-4.48174 6.40525,-3.81725 c 5.71963,-3.40867 6.51668,-3.64839 7.44645,-2.23963 0.57268,0.86769 14.83247,24.80993 31.68843,53.20497 19.82821,33.40201 31.07845,51.46186 31.86883,51.15857 1.54548,-0.59305 113.40364,-100.63977 113.49033,-101.50653 0.0352,-0.35255 -7.80857,2.55536 -17.43074,6.46201 -9.62215,3.90666 -17.79391,6.78764 -18.15947,6.40217 -1.30859,-1.37985 -5.47625,-12.68745 -4.82466,-13.09015 0.36577,-0.22605 11.89162,-5.02548 25.61302,-10.66539 13.72139,-5.6399 34.38648,-14.13352 45.92242,-18.87472 11.53594,-4.74121 21.09506,-8.48095 21.24247,-8.31053 0.31094,0.35946 -44.78766,92.53412 -45.72047,93.4457 -0.47777,0.4669 -11.5991,-4.42416 -13.11621,-5.76839 -0.16306,-0.14448 4.07519,-8.99768 9.41832,-19.67378 5.34313,-10.67609 9.55404,-19.57184 9.35757,-19.76832 -0.19647,-0.19647 -28.84765,25.16699 -63.66927,56.36326 -34.82163,31.19626 -64.01906,57.35137 -64.88319,58.12246 -1.40549,1.25416 -1.77282,1.06768 -3.48412,-1.76865 z m -164.62354,-61.91684 -36.97275,-57.43724 6.26042,-4.07896 6.26042,-4.07895 3.02455,4.55904 c 1.6635,2.50748 16.12585,24.9705 32.13855,49.91782 l 29.11399,45.35875 10.57386,-9.83158 c 5.81563,-5.40737 18.56736,-17.23861 28.33719,-26.29165 l 17.76332,-16.46007 5.08244,5.41784 5.08245,5.41784 -2.57972,2.51328 c -1.41883,1.38229 -15.11023,14.09048 -30.42531,28.24041 -15.3151,14.14993 -29.83486,27.63144 -32.26615,29.95892 l -4.4205,4.2318 z m 138.62801,-47.67784 -5.07622,-5.14005 41.81154,-38.79704 c 22.99634,-21.33839 41.495,-38.90156 41.10814,-39.02929 -0.38685,-0.12775 -8.69698,2.97769 -18.46695,6.90094 -9.76998,3.92326 -18.04978,6.83634 -18.39953,6.47352 -0.34977,-0.36284 -1.73584,-3.3899 -3.08015,-6.72681 l -2.44421,-6.06714 3.08015,-1.28205 c 1.69408,-0.70514 23.03939,-9.26593 47.43402,-19.02396 l 44.35389,-17.74189 -23.47159,46.93548 c -12.90937,25.81452 -23.69908,46.93549 -23.97714,46.93549 -0.48735,0 -12.14582,-5.7164 -12.7497,-6.25144 -0.16306,-0.14449 4.08633,-9.01995 9.44308,-19.72325 l 9.73955,-19.46054 -4.24027,3.75379 c -2.33215,2.06458 -20.97961,19.30893 -41.43882,38.32077 -20.4592,19.01184 -37.50254,34.6787 -37.87407,34.81526 -0.37154,0.13654 -2.95982,-2.06476 -5.75172,-4.89179 z m -129.7817,-79.37346 v -19.20387 h 7.68155 7.68156 v 19.20387 19.20387 h -7.68156 -7.68155 z m 55.21115,-15.3631 -13.41942,-13.44515 5.28108,-5.28106 5.28107,-5.28107 13.41941,13.44515 13.41941,13.44514 -5.28107,5.28106 -5.28107,5.28107 z m -112.2409,7.52243 -4.69919,-4.837 13.5666,-13.56658 13.56659,-13.56661 5.30569,5.23979 5.3057,5.23977 -13.20004,13.22537 c -7.26003,7.27394 -13.63792,13.19765 -14.17311,13.16381 -0.53518,-0.0339 -3.08769,-2.23819 -5.67224,-4.89855 z m 57.94248,-36.61889 c -13.20584,-3.73373 -22.35408,-15.79631 -22.35408,-29.47536 0,-8.60432 2.70261,-15.02168 8.96256,-21.28163 4.62593,-4.62594 6.51036,-5.77723 12.36868,-7.55664 5.24682,-1.59367 8.1288,-1.94713 11.96657,-1.46764 10.86876,1.35797 19.89696,7.89102 24.51586,17.74034 2.071,4.41619 2.51002,6.72155 2.4843,13.04566 -0.0279,6.86367 -0.37688,8.32516 -3.27771,13.72649 -3.50542,6.52706 -7.96859,10.6565 -14.76898,13.66463 -5.58247,2.4694 -14.33975,3.17542 -19.8972,1.60415 z m -85.40979,-28.51518 v -7.68155 h 19.20388 19.20387 v 7.68155 7.68156 h -19.20387 -19.20388 z m 145.94948,0 v -7.68155 h 19.20387 19.20387 v 7.68155 7.68156 h -19.20387 -19.20387 z m 138.97315,-16.35165 c -8.86748,-2.22695 -17.13573,-9.18876 -21.06341,-17.73523 -2.10493,-4.58023 -2.22053,-6.0261 -2.51418,-31.44635 l -0.3078,-26.64538 h 7.7493 7.74931 v 25.30314 c 0,24.72874 0.0495,25.37668 2.18328,28.54292 6.88487,10.21645 19.47477,10.21645 26.35963,0 2.13373,-3.16624 2.1833,-3.81418 2.1833,-28.54292 v -25.30314 h 7.7493 7.74929 l -0.30779,26.64538 c -0.29365,25.41999 -0.40959,26.87023 -2.52117,31.53458 -2.74385,6.06099 -9.78467,13.10844 -15.70084,15.7156 -5.2598,2.3179 -14.20593,3.21278 -19.30822,1.9314 z m 57.99083,-33.94483 c -5.97401,-17.62904 -10.93039,-32.79626 -11.01416,-33.70494 -0.11739,-1.27339 1.38347,-2.05658 6.54701,-3.41641 3.68461,-0.97034 6.76035,-1.68233 6.83496,-1.58219 0.0746,0.10015 3.53435,10.44416 7.68829,22.98669 4.15395,12.54253 7.78568,22.80461 8.07051,22.80461 0.28484,0 3.95436,-10.3701 8.15449,-23.04466 4.20013,-12.67456 8.0788,-23.03829 8.61927,-23.03051 0.54047,0.008 3.57519,0.83294 6.74383,1.8337 4.24393,1.34036 5.72106,2.25163 5.60886,3.46023 -0.0838,0.90237 -5.04015,16.06444 -11.01415,33.69348 l -10.86185,32.0528 h -7.25761 -7.25761 z m -306.68924,4.42454 -13.20005,-13.22536 5.30135,-5.23549 5.30134,-5.2355 13.42405,13.39837 13.42406,13.39836 -4.99959,5.06249 c -2.74978,2.78436 -5.23619,5.06247 -5.52536,5.06247 -0.28917,0 -6.46578,-5.9514 -13.7258,-13.22534 z m 95.04619,8.63145 c -2.48864,-2.52665 -4.52482,-5.01716 -4.52482,-5.53446 0,-0.5173 5.82877,-6.75732 12.95282,-13.86671 l 12.95282,-12.92615 5.30111,5.23526 5.30111,5.23525 -13.20004,13.22536 c -7.26004,7.27394 -13.43813,13.22534 -13.7291,13.22534 -0.291,0 -2.56525,-2.06724 -5.0539,-4.59389 z m -46.77335,-35.73424 v -19.20388 h 7.68155 7.68156 v 19.20388 19.20387 h -7.68156 -7.68155 z"
       id="path1143" />
  </g>
</svg>
