<?xml version="1.0" encoding="UTF-8" standalone="no"?>
<!-- Created with Inkscape (http://www.inkscape.org/) -->

<svg
   version="1.1"
   id="svg1791"
   width="682.66669"
   height="682.66669"
   viewBox="0 0 682.66669 682.66669"
   sodipodi:docname="1244416.png"
   inkscape:export-filename="1244416.svg"
   inkscape:export-xdpi="4.21875"
   inkscape:export-ydpi="4.21875"
   xmlns:inkscape="http://www.inkscape.org/namespaces/inkscape"
   xmlns:sodipodi="http://sodipodi.sourceforge.net/DTD/sodipodi-0.dtd"
   xmlns="http://www.w3.org/2000/svg"
   xmlns:svg="http://www.w3.org/2000/svg">
  <defs
     id="defs1795" />
  <sodipodi:namedview
     id="namedview1793"
     pagecolor="#ffffff"
     bordercolor="#000000"
     borderopacity="0.25"
     inkscape:showpageshadow="2"
     inkscape:pageopacity="0.0"
     inkscape:pagecheckerboard="0"
     inkscape:deskcolor="#d1d1d1"
     showgrid="false" />
  <g
     inkscape:groupmode="layer"
     inkscape:label="Image"
     id="g1797">
    <path
       style="fill:#000000;stroke-width:1.33333"
       d="m 336.52368,676.74856 c -5.82723,-3.39404 -6.33331,-7.11456 -6.33331,-46.55986 0,-39.76725 0.50963,-43.37152 6.59281,-46.62714 3.29384,-1.7628 10.18721,-1.7628 13.48105,0 6.08318,3.25562 6.59281,6.85989 6.59281,46.62714 0,39.76726 -0.50963,43.37153 -6.59281,46.62715 -3.25398,1.74147 -10.69769,1.70502 -13.74055,-0.0673 z M 226.59351,631.50632 c -3.09734,-1.24735 -7.06981,-7.66314 -7.06981,-11.41819 0,-2.39393 14.77271,-40.66904 18.82944,-48.78584 3.23361,-6.46991 9.5375,-8.77693 16.28223,-5.9588 5.31627,2.22128 7.555,5.56961 7.555,11.29955 0,3.69776 -15.55124,45.39492 -18.97502,50.87726 -2.96776,4.75214 -10.3334,6.51846 -16.62184,3.98602 z m 228.15976,-3.83007 c -3.43936,-2.09732 -5.77741,-6.44895 -14.44111,-26.87813 -8.41215,-19.83599 -10.18388,-25.1937 -9.51332,-28.7681 1.63296,-8.70445 12.64799,-12.7653 19.66148,-7.24849 3.56102,2.80109 23.73006,46.83304 23.73006,51.80615 0,4.63784 -2.95796,9.68318 -6.86004,11.70102 -4.88222,2.5247 -7.65386,2.38972 -12.57707,-0.61245 z M 109.3223,581.95358 c -4.32606,-2.09356 -7.71192,-9.26336 -6.56282,-13.89725 1.20804,-4.8716 51.52946,-56.0076 57.76422,-58.69928 3.7478,-1.61802 4.9704,-1.60462 9.04799,0.0991 5.33898,2.23078 8.7853,8.59315 7.70781,14.22966 -0.44132,2.30865 -10.27591,13.06613 -28.94964,31.66633 -29.96526,29.84727 -30.93456,30.5083 -39.00756,26.60144 z m 456.20143,0.037 c -4.1595,-2.26233 -52.61485,-50.69937 -54.75638,-54.73563 -2.78872,-5.25605 -2.34864,-9.67401 1.40841,-14.13901 3.94626,-4.68987 9.18807,-5.98971 14.68094,-3.64053 2.2002,0.94097 15.85033,13.725 30.33363,28.40895 25.7629,26.11966 26.3334,26.81881 26.3334,32.27046 0,9.92092 -9.7425,16.32703 -18,11.83576 z M 322.65964,546.15597 c -34.36322,-3.61991 -70.35366,-17.1259 -98.09421,-36.81142 -14.14493,-10.03766 -38.15992,-34.05265 -48.19758,-48.19758 -27.39938,-38.61081 -41.36363,-89.61781 -37.03897,-135.29161 2.83232,-29.91281 8.52455,-50.11324 21.50978,-76.33333 36.51231,-73.72657 117.76603,-118.99754 200.08391,-111.47789 59.37828,5.42415 111.31639,34.2264 146.70057,81.35274 46.70279,62.20101 53.85709,145.83519 18.45652,215.75927 -38.05887,75.1749 -119.84627,119.80367 -203.42002,110.99982 z M 290.19037,408.63892 c 17.04809,-8.02326 25.62511,-20.83677 27.9688,-41.78356 0.73845,-6.6 1.34757,-26.27099 1.3536,-43.71331 l 0.0109,-31.71332 -13.66666,0.37999 -13.66667,0.37997 -0.66667,40 c -0.69981,41.98847 -0.81421,42.78338 -7.16661,49.79335 -4.30956,4.75568 -9.3748,6.87354 -16.43384,6.87126 -8.42601,-0.003 -14.75115,-3.35579 -19.69889,-10.4427 0,0 -1.31064,-3.54325 -2.03399,-5.77808 -4.12925,-12.75753 -2.66667,-40.22192 -2.66667,-40.22192 l -0.66667,-40.22191 -13.66666,-0.37997 -13.66667,-0.37999 v 36.46844 c 0,20.49357 0.63433,39.93406 1.44808,44.37998 2.70965,14.80405 10.53879,26.58759 22.26664,33.51321 9.64935,5.69823 15.84347,7.06148 30.28528,6.66544 11.08175,-0.30388 14.57171,-0.94844 20.66667,-3.81688 z m 132.95087,2.54978 c 1.34732,-1.75792 47.04914,-117.07001 47.04914,-118.71158 0,-0.52531 -6.45,-0.94944 -14.33334,-0.94253 l -14.33333,0.012 -14.61239,36.74788 c -8.03681,20.21133 -14.98563,36.97855 -15.44181,37.26048 -0.45619,0.28195 -7.46447,-16.11025 -15.57398,-36.42711 l -14.74454,-36.93915 -14.31472,-0.38014 c -13.19696,-0.35046 -14.26308,-0.1943 -13.65327,2 0.75387,2.7127 46.27169,116.51587 47.21516,118.04681 1.08031,1.753 21.34381,1.15903 22.74308,-0.66666 z M 64.190358,471.64535 c -7.31597,-3.1328 -10.2727,-11.71501 -6.25475,-18.15506 2.07228,-3.32148 6.81253,-5.86642 26.90784,-14.44619 26.807252,-11.44544 30.668912,-12.01388 35.955812,-5.29268 3.39673,4.31825 3.59354,12.46452 0.3911,16.1886 -2.43804,2.83516 -44.247072,21.19704 -50.649702,22.24456 -2.026,0.33147 -4.88363,0.0888 -6.3503,-0.53923 z M 593.64353,456.94077 c -27.8418,-11.08896 -31.7529,-14.77612 -27.5104,-25.93474 1.3091,-3.4432 7.5135,-7.484 11.4912,-7.484 2.3939,0 40.669,14.77271 48.7858,18.82944 12.3022,6.14855 8.217,24.08164 -5.3996,23.7033 -2.6511,-0.0736 -14.9662,-4.17496 -27.367,-9.114 z M 16.190358,354.26155 C 7.7030176,350.78775 5.4460576,339.6618 11.915618,333.18869 l 3.66465,-3.66666 38.21805,-0.39306 c 40.20525,-0.41349 43.90921,0.016 47.778482,5.54015 2.26075,3.22767 2.55579,10.55715 0.57404,14.2601 -3.259981,6.09133 -6.859242,6.59806 -46.227602,6.50829 -20.38642,-0.0465 -38.26621,-0.57567 -39.73288,-1.17596 z m 574.666672,0.0295 c -8.3077,-3.49206 -10.5287,-14.84638 -4.1515,-21.22354 l 3.5454,-3.54545 h 40.6061 40.6061 l 3.6666,3.66666 c 5.1163,5.1163 5.1172,12.88211 10e-4,18.00001 l -3.6647,3.66666 -38.9716,0.27828 c -21.4338,0.15307 -40.1711,-0.22612 -41.6377,-0.84262 z M 84.190358,251.79675 c -28.13254,-11.28091 -28.13172,-11.28046 -29.93324,-16.7391 -2.8083,-8.50924 4.45012,-17.78311 12.85135,-16.41977 8.55046,1.38754 49.013362,18.2187 52.081892,21.66425 6.35722,7.1383 1.93803,18.63598 -7.66666,19.94684 -3.6112,0.49286 -9.79324,-1.4188 -27.333342,-8.45222 z m 483.230772,-0.17216 c -5.0204,-5.02036 -5.4324,-12.8727 -0.8974,-17.10254 2.5427,-2.37165 40.9952,-19.50005 49.9021,-22.22857 3.7344,-1.14398 11.7964,2.21766 13.6572,5.69468 2.5615,4.78608 1.6874,10.56345 -2.226,14.71388 -4.1522,4.40373 -46.88,22.81999 -52.9449,22.81999 -2.194,0 -5.1114,-1.51786 -7.491,-3.89744 z M 516.0343,174.79793 c -2.28584,-1.15717 -4.83584,-3.59588 -5.66667,-5.41933 -3.64491,-7.99971 -3.05945,-8.84432 27.1006,-39.09696 27.8377,-27.92301 28.757,-28.69901 34.0001,-28.69901 7.4934,0 12.6614,5.15623 12.6614,12.63244 0,5.19879 -0.8398,6.19892 -27.9697,33.31006 -29.984,29.96331 -32.04449,31.36379 -40.12573,27.2728 z M 130.55818,147.15421 c -26.98402,-26.98403 -28.36782,-28.61504 -28.36782,-33.4359 0,-7.05889 5.78764,-12.86296 12.82656,-12.86296 4.76885,0 6.50899,1.47149 33.31294,28.1699 18.67373,18.6002 28.50832,29.35768 28.94964,31.66633 0.85391,4.4669 -2.07544,11.52744 -5.55527,13.38979 -1.48053,0.79236 -4.96581,1.44065 -7.74506,1.44065 -4.80144,0 -6.46632,-1.41314 -33.42099,-28.36781 z m 105.71095,-27.96552 c -4.06503,-3.58333 -22.07876,-45.912976 -22.07876,-51.881848 0,-5.416475 1.99937,-8.704611 6.8035,-11.188926 4.93858,-2.553836 10.48932,-1.588461 14.22086,2.473263 3.5564,3.871093 21.64231,46.433231 21.64231,50.931521 0,4.0523 -2.17584,8.62138 -5.21779,10.95692 -3.54817,2.72419 -11.58059,2.04955 -15.37012,-1.29093 z m 195.6929,-0.27702 c -4.7746,-2.07691 -7.10499,-5.58384 -7.10499,-10.69206 0,-5.10921 18.2418,-50.566463 21.46134,-53.480105 1.72669,-1.562633 4.74944,-2.490217 8.11494,-2.490217 4.36542,0 6.08212,0.804516 9.22684,4.324065 2.12495,2.378236 3.86355,5.629855 3.86355,7.225819 0,1.595964 -4.32676,13.972409 -9.61504,27.503209 -8.23383,21.067459 -10.19705,24.956389 -13.66667,27.072229 -4.78168,2.91598 -6.62571,2.99663 -12.27997,0.53706 z m -95.9579,-18.66988 c -5.52415,-3.869275 -5.95364,-7.573237 -5.54015,-47.778481 l 0.39306,-38.218047 3.66666,-3.664655 c 5.11687,-5.1140639 12.88314,-5.1140639 18.00001,0 l 3.66666,3.664655 0.39306,38.218047 c 0.41349,40.205244 -0.016,43.909206 -5.54015,47.778481 -1.52877,1.07079 -4.91259,1.9469 -7.51958,1.9469 -2.60698,0 -5.9908,-0.87611 -7.51957,-1.9469 z"
       id="path2322"
       sodipodi:nodetypes="sssssssssssssssssssssssssssssssssssssssssssssssscccsscssccccssssssssccssccssssssssssssssssssscssssscscccsccsccsssssssssssssssssssssssssssssssssssssssssssssscsscssss" />
  </g>
</svg>
