<?xml version="1.0" encoding="UTF-8" standalone="no"?>
<!-- Created with Inkscape (http://www.inkscape.org/) -->

<svg
   version="1.1"
   id="svg198"
   width="682.66669"
   height="682.66669"
   viewBox="0 0 682.66669 682.66669"
   sodipodi:docname="11694036.png"
   xmlns:inkscape="http://www.inkscape.org/namespaces/inkscape"
   xmlns:sodipodi="http://sodipodi.sourceforge.net/DTD/sodipodi-0.dtd"
   xmlns="http://www.w3.org/2000/svg"
   xmlns:svg="http://www.w3.org/2000/svg">
  <defs
     id="defs202" />
  <sodipodi:namedview
     id="namedview200"
     pagecolor="#ffffff"
     bordercolor="#000000"
     borderopacity="0.25"
     inkscape:showpageshadow="2"
     inkscape:pageopacity="0.0"
     inkscape:pagecheckerboard="0"
     inkscape:deskcolor="#d1d1d1"
     showgrid="false" />
  <g
     inkscape:groupmode="layer"
     inkscape:label="Image"
     id="g204">
    <path
       style="fill:#000000;stroke-width:1.33333"
       d="m 310.11071,668.31125 c -6.74059,-3.73601 -6.7156,-3.46063 -6.76618,-74.60599 l -0.0473,-66.46667 4.53333,-4.53333 4.53334,-4.53333 h 28.558 c 33.32247,0 38.64611,1.04788 48.24371,9.49602 3.44181,3.0296 7.87945,8.58239 9.8614,12.33951 3.31654,6.28705 3.60172,8.0524 3.58042,22.16447 -0.02,13.28596 -0.4217,16.08502 -3.00818,20.96293 -4.66722,8.80203 -10.49878,14.60985 -18.72655,18.65028 -7.14915,3.51077 -8.75725,3.74547 -28.57547,4.1706 l -21,0.45048 V 632.893 c 0,17.69558 -0.52871,27.64717 -1.59292,29.98285 -2.95887,6.49403 -12.77212,9.21629 -19.59365,5.4354 z m 61.28913,-94.03676 c 3.38675,-3.38675 3.89744,-4.88326 3.89744,-11.42099 0,-7.74805 -1.53128,-12.14209 -5.21778,-14.97251 -1.41992,-1.09017 -8.1439,-1.6382 -20.44888,-1.66666 l -18.33334,-0.0424 v 16 16 h 18.10256 18.10258 z m 56.91848,92.00681 -4.35437,-3.89062 v -68.21875 -68.21875 l 4.35437,-3.89063 4.35436,-3.89062 h 35.21001 35.21 l 4.05696,3.4137 c 5.11108,4.3007 6.51192,10.72508 3.5764,16.40175 -3.81754,7.38231 -7.2184,8.18455 -34.69588,8.18455 h -24.73288 v 16 16 h 25.89769 c 25.84155,0 25.90651,0.008 29.95467,3.4137 5.11108,4.3007 6.51192,10.72508 3.5764,16.40175 -3.81754,7.38231 -7.2184,8.18455 -34.69588,8.18455 h -24.73288 v 26.60393 c 0,28.84356 -0.66672,32.29338 -6.86004,35.49607 -5.85851,3.02955 -11.24486,2.36436 -16.11893,-1.99063 z m -213.02104,1.71128 c -11.99407,-2.23022 -23.01506,-6.5164 -26.05987,-10.13496 -4.41133,-5.24257 -4.43436,-12.71033 -0.0537,-17.43706 4.83421,-5.2162 9.13829,-5.7064 21.54138,-2.45338 14.98592,3.93046 28.0357,3.86578 34.02233,-0.16861 8.52936,-5.74793 10.28802,-14.40323 4.2166,-20.75217 -2.22228,-2.32386 -11.28253,-7.1645 -23.00001,-12.28829 -21.87852,-9.56696 -26.87797,-12.41712 -32.9317,-18.77413 -7.25539,-7.61889 -10.38726,-16.2572 -10.3251,-28.47872 0.114,-22.41496 13.05968,-37.06096 37.11667,-41.99167 11.90491,-2.44001 34.91992,0.67304 48.10938,6.50736 12.26757,5.42654 10.83484,22.93726 -2.14008,26.1559 -2.08954,0.51834 -6.94299,-0.19287 -12.02238,-1.76174 -24.87319,-7.68254 -41.63347,-3.82937 -43.31944,9.9591 -1.07757,8.81265 2.29248,12.18693 19.66251,19.68712 34.81499,15.03276 39.89489,18.48578 46.2228,31.41958 2.93572,6.00038 3.59225,9.18302 3.59225,17.41367 0,17.94379 -9.67029,32.47947 -26.73778,40.19026 -5.2456,2.36988 -9.36635,3.02038 -20.56046,3.24573 -7.7,0.155 -15.5,0.003 -17.33333,-0.33799 z m 45.23913,-184.97715 c -8.32698,-2.24519 -17.82469,-8.02461 -21.70321,-13.20657 -9.02436,-12.05711 -9.78139,-18.99147 -2.83203,-25.94083 4.28335,-4.28335 5.20722,-4.63641 10.33334,-3.949 5.63126,0.75516 6.81054,1.73056 15.1633,12.54179 2.77451,3.59114 3.33286,3.72605 17.27312,4.17365 26.11995,0.83868 29.20251,-1.88659 29.17795,-25.79588 -0.009,-9.65596 -0.61599,-15.73015 -1.77399,-17.77955 -2.84285,-5.03117 -9.37353,-6.88712 -24.23433,-6.88712 -14.9066,0 -18.84215,1.29279 -23.59496,7.75069 -1.62341,2.20583 -5.07699,4.71203 -7.6746,5.56931 -3.99269,1.31771 -5.49475,1.18156 -9.71499,-0.88064 -8.68056,-4.24173 -8.82903,-5.32213 -6.2534,-45.5064 1.45143,-22.64481 2.94507,-37.05973 4.10449,-39.61199 3.48642,-7.67461 4.79239,-7.94672 40.45179,-8.42813 17.94556,-0.24228 35.29311,-0.0409 38.55011,0.44753 12.76015,1.91351 18.08891,14.93079 9.59084,23.42886 l -3.89743,3.89744 h -29.41049 -29.41051 l -0.63452,3 c -0.349,1.65 -0.82714,7.29868 -1.06254,12.55261 l -0.42802,9.55261 20.03714,0.51776 c 13.97888,0.36123 21.77249,1.16242 25.77664,2.64987 20.44569,7.59509 29.40303,25.33519 27.82084,55.09947 -0.872,16.40435 -4.4153,26.72179 -12.00452,34.95513 -6.14574,6.66734 -10.66144,9.31668 -20.22248,11.86443 -8.32362,2.218 -35.18012,2.20871 -43.42754,-0.0151 z m 130.09421,0.0329 c -18.32258,-6.08232 -28.56879,-17.12409 -34.87535,-37.58324 -3.58619,-11.634 -3.63961,-71.67821 -0.0752,-84.59367 6.22488,-22.55589 20.73624,-35.5737 43.40577,-38.93836 11.20454,-1.66299 26.56516,0.12933 35.68606,4.16392 13.48075,5.96319 24.11375,20.61535 27.94652,38.51002 2.67327,12.4811 2.64477,64.14264 -0.0423,76.67795 -4.14124,19.31909 -13.73918,32.54437 -28.44741,39.19846 -6.45648,2.92095 -9.90174,3.50486 -22.93136,3.88638 -10.2997,0.3016 -17.08416,-0.13227 -20.66667,-1.32146 z m 34.90448,-29.6124 c 7.11749,-5.17604 9.94227,-13.40434 11.06253,-32.22406 1.51123,-25.38775 -0.2269,-51.98061 -3.89239,-59.5525 -4.41516,-9.12051 -10.19044,-12.11488 -23.40796,-12.13661 -24.55069,-0.0404 -29.39753,10.15413 -28.46037,59.86154 0.50355,26.70789 0.52917,26.90653 4.4834,34.74169 5.50455,10.90705 9.65812,12.98568 24.88145,12.45174 9.12164,-0.31993 12.36758,-0.98501 15.33334,-3.1418 z M 122.48143,420.92726 c -7.26532,-3.09573 -10.55178,-12.91538 -6.66751,-19.92193 1.05473,-1.90253 12.34614,-9.33058 28.28609,-18.60797 22.22285,-12.93419 27.44577,-15.45092 32.16696,-15.50008 8.02,-0.0835 13.03031,5.02073 13.03031,13.27464 0,8.10005 -1.90616,9.72391 -31.33334,26.69287 -24.53162,14.14597 -30.10375,16.35432 -35.48251,14.06247 z m 436.54171,-1.32121 c -23.77801,-13.03821 -47.7118,-27.59364 -50.72585,-30.84914 -8.2146,-8.87264 -1.64408,-22.67956 10.7294,-22.54612 4.91936,0.0531 57.45053,30.63925 59.75169,34.79033 2.94235,5.30772 2.25084,11.35323 -1.81442,15.86273 -4.85312,5.38346 -11.32099,6.37206 -17.94082,2.7422 z M 86.379101,292.90296 c -5.53596,-3.37551 -7.750131,-10.55054 -5.165075,-16.73746 3.646649,-8.72765 3.236113,-8.66025 52.749914,-8.66025 49.5138,0 49.10327,-0.0673 52.74992,8.66025 2.58506,6.18692 0.37088,13.36195 -5.16508,16.73746 -3.98062,2.42716 -7.01244,2.59232 -47.58484,2.59232 -40.572395,0 -43.604208,-0.16516 -47.584839,-2.59232 z m 144.251509,1.4039 c -7.85976,-3.39993 -9.79167,-10.89598 -7.41364,-28.76581 7.3508,-55.23795 47.0297,-97.92912 101.71004,-109.43148 10.75678,-2.26276 35.77102,-2.54746 47.12539,-0.53635 49.61742,8.78832 90.56666,47.48744 101.82831,96.23294 3.89752,16.87022 4.6998,28.97578 2.30084,34.71728 -3.85492,9.22612 -15.48773,11.47877 -22.22777,4.30432 -2.53129,-2.69444 -3.42052,-5.91503 -4.8242,-17.4722 -0.94649,-7.79288 -3.01427,-18.1472 -4.59507,-23.00959 -10.51056,-32.32954 -37.39277,-57.27652 -70.83159,-65.7325 -8.99124,-2.27369 -13.71885,-2.6415 -27.62658,-2.14938 -19.47035,0.68894 -31.75726,4.14032 -47.44573,13.32744 -11.06382,6.47894 -27.49052,22.70766 -33.80614,33.39873 -9.03606,15.29616 -14.86052,35.05446 -14.86052,50.41124 0,5.24692 -0.71972,7.32671 -3.66667,10.59568 -3.91656,4.34455 -10.89307,6.17462 -15.66667,4.10968 z m 282.41517,-1.4039 c -5.53596,-3.37551 -7.75013,-10.55054 -5.16508,-16.73746 3.64665,-8.72765 3.23612,-8.66025 52.74992,-8.66025 49.5138,0 49.10327,-0.0673 52.74992,8.66025 2.58506,6.18692 0.37088,13.36195 -5.16508,16.73746 -3.98062,2.42716 -7.01244,2.59232 -47.58484,2.59232 -40.5724,0 -43.60421,-0.16516 -47.58484,-2.59232 z m -323.7485,-86.82034 c -25.60378,-13.91867 -68.71834,-39.63617 -71.66667,-42.74865 -8.26043,-8.7203 -1.6737,-22.49539 10.75646,-22.49539 4.60073,0 74.12433,39.82061 79.24354,45.38784 7.235,7.8682 2.47907,20.46008 -8.33333,22.06347 -3.28174,0.48665 -6.24944,-0.1684 -10,-2.20727 z m 302.5175,1.51129 c -8.539,-3.63842 -11.03968,-14.64657 -4.85083,-21.3536 5.22246,-5.6597 74.71203,-45.39038 79.39955,-45.3967 12.2802,-0.0165 18.78546,13.80668 10.60046,22.52528 -4.75182,5.0616 -73.09437,44.24854 -78.33334,44.91556 -2.2,0.2801 -5.26713,-0.0307 -6.81584,-0.69054 z m -239.7217,-65.75533 c -4.09495,-3.66393 -44.7345,-73.852778 -44.94934,-77.632308 -0.48189,-8.477241 2.54167,-13.444389 9.44222,-15.511845 4.10288,-1.229252 5.82494,-1.102199 9.64768,0.711804 4.0474,1.920623 7.41444,6.998441 25.85848,38.997091 11.66284,20.233928 21.551,38.059368 21.97369,39.612108 2.18963,8.04348 -4.82193,16.82315 -13.4352,16.82315 -3.4943,0 -6.27776,-0.97808 -8.53753,-3 z m 172.43498,-0.89744 c -7.41787,-7.41786 -6.55611,-9.95349 17.65703,-51.953568 18.73278,-32.49386 22.16154,-37.676433 26.19182,-39.588922 9.15528,-4.344468 19.18704,1.884948 19.18704,11.914572 0,5.35966 1.50536,2.40768 -22.53562,44.192018 -10.54824,18.33334 -20.68638,34.68334 -22.52919,36.33334 -5.03847,4.51131 -12.95782,4.11583 -17.97108,-0.89744 z M 340.3308,120.09351 c -1.99822,-1.0844 -4.24823,-3.12093 -5,-4.52563 -0.85703,-1.60137 -1.36685,-19.533998 -1.36685,-48.077548 v -45.52355 l 3.89744,-3.897436 c 5.48825,-5.488263 13.38353,-5.488263 18.87179,0 l 3.89744,3.897436 v 45.52355 c 0,28.67302 -0.50816,46.473068 -1.37286,48.088768 -1.6982,3.17311 -8.12614,6.61084 -12.2276,6.53943 -1.68641,-0.0294 -4.70113,-0.94062 -6.69936,-2.02502 z"
       id="path316" />
  </g>
</svg>
